<?xml version="1.0" encoding="UTF-8" standalone="no"?>
<!-- Created with Inkscape (http://www.inkscape.org/) -->

<svg
   width="210mm"
   height="297mm"
   viewBox="0 0 210 297"
   version="1.1"
   id="svg1"
   inkscape:version="1.4.2 (ebf0e940d0, 2025-05-08)"
   sodipodi:docname="nayadara symbol.svg"
   inkscape:export-filename="nayadara symbol.png"
   inkscape:export-xdpi="96"
   inkscape:export-ydpi="96"
   xmlns:inkscape="http://www.inkscape.org/namespaces/inkscape"
   xmlns:sodipodi="http://sodipodi.sourceforge.net/DTD/sodipodi-0.dtd"
   xmlns="http://www.w3.org/2000/svg"
   xmlns:svg="http://www.w3.org/2000/svg">
  <sodipodi:namedview
     id="namedview1"
     pagecolor="#ffffff"
     bordercolor="#666666"
     borderopacity="1.0"
     inkscape:showpageshadow="2"
     inkscape:pageopacity="0.0"
     inkscape:pagecheckerboard="0"
     inkscape:deskcolor="#d1d1d1"
     inkscape:document-units="mm"
     inkscape:zoom="1.33"
     inkscape:cx="356.01504"
     inkscape:cy="543.23308"
     inkscape:window-width="952"
     inkscape:window-height="1019"
     inkscape:window-x="0"
     inkscape:window-y="0"
     inkscape:window-maximized="0"
     inkscape:current-layer="layer1" />
  <defs
     id="defs1" />
  <g
     inkscape:label="Layer 1"
     inkscape:groupmode="layer"
     id="layer1">
    <path
       sodipodi:type="star"
       style="fill:#bfbfbf;fill-opacity:1;stroke-width:2;stroke-linejoin:round"
       id="path1"
       inkscape:flatsided="true"
       sodipodi:sides="8"
       sodipodi:cx="57.115383"
       sodipodi:cy="110.1511"
       sodipodi:r1="40.64957"
       sodipodi:r2="35.20356"
       sodipodi:arg1="0.89919017"
       sodipodi:arg2="1.2918893"
       inkscape:rounded="-4.23"
       inkscape:randomized="0"
       d="M 82.40934,141.97253 C 185.43127,60.083299 -78.252176,135.5947 52.499763,150.53778 183.2517,165.48086 -56.595276,32.423122 25.293954,135.44506 107.18318,238.46699 31.671785,-25.216459 16.728707,105.53548 1.7856281,236.28742 134.84336,-3.5595594 31.821427,78.329671 -71.200508,160.2189 192.48294,84.707502 61.731003,69.764424 -69.020936,54.821345 170.82604,187.87908 88.936812,84.857144 7.0475817,-18.164791 82.558981,245.51866 97.50206,114.76672 112.44514,-15.985219 -20.612595,223.86176 82.40934,141.97253 Z"
       transform="translate(48.470162,41.014377)" />
    <path
       sodipodi:type="star"
       style="fill:#999999;fill-opacity:1;stroke-width:2;stroke-linejoin:round"
       id="path1-0"
       inkscape:flatsided="true"
       sodipodi:sides="8"
       sodipodi:cx="57.115383"
       sodipodi:cy="110.1511"
       sodipodi:r1="40.64957"
       sodipodi:r2="35.20356"
       sodipodi:arg1="0.89919017"
       sodipodi:arg2="1.2918893"
       inkscape:rounded="-4.23"
       inkscape:randomized="0"
       d="M 82.40934,141.97253 C 185.43127,60.083299 -78.252176,135.5947 52.499763,150.53778 183.2517,165.48086 -56.595276,32.423122 25.293954,135.44506 107.18318,238.46699 31.671785,-25.216459 16.728707,105.53548 1.7856281,236.28742 134.84336,-3.5595594 31.821427,78.329671 -71.200508,160.2189 192.48294,84.707502 61.731003,69.764424 -69.020936,54.821345 170.82604,187.87908 88.936812,84.857144 7.0475817,-18.164791 82.558981,245.51866 97.50206,114.76672 112.44514,-15.985219 -20.612595,223.86176 82.40934,141.97253 Z"
       transform="matrix(-0.30748965,0.74234568,-0.74234568,-0.30748965,204.0673,142.49441)" />
    <path
       sodipodi:type="star"
       style="fill:#7a7a7a;fill-opacity:1;stroke-width:2;stroke-linejoin:round"
       id="path1-0-6"
       inkscape:flatsided="true"
       sodipodi:sides="8"
       sodipodi:cx="57.115383"
       sodipodi:cy="110.1511"
       sodipodi:r1="40.64957"
       sodipodi:r2="35.20356"
       sodipodi:arg1="0.89919017"
       sodipodi:arg2="1.2918893"
       inkscape:rounded="-4.23"
       inkscape:randomized="0"
       d="M 82.40934,141.97253 C 185.43127,60.083299 -78.252176,135.5947 52.499763,150.53778 183.2517,165.48086 -56.595276,32.423122 25.293954,135.44506 107.18318,238.46699 31.671785,-25.216459 16.728707,105.53548 1.7856281,236.28742 134.84336,-3.5595594 31.821427,78.329671 -71.200508,160.2189 192.48294,84.707502 61.731003,69.764424 -69.020936,54.821345 170.82604,187.87908 88.936812,84.857144 7.0475817,-18.164791 82.558981,245.51866 97.50206,114.76672 112.44514,-15.985219 -20.612595,223.86176 82.40934,141.97253 Z"
       transform="matrix(-0.46386447,0.46386446,-0.46386446,-0.46386447,182.21896,176.1856)" />
    <path
       sodipodi:type="star"
       style="fill:#616161;fill-opacity:1;stroke-width:2;stroke-linejoin:round"
       id="path1-0-6-1"
       inkscape:flatsided="true"
       sodipodi:sides="8"
       sodipodi:cx="57.115383"
       sodipodi:cy="110.1511"
       sodipodi:r1="40.64957"
       sodipodi:r2="35.20356"
       sodipodi:arg1="0.89919017"
       sodipodi:arg2="1.2918893"
       inkscape:rounded="-4.23"
       inkscape:randomized="0"
       d="M 82.40934,141.97253 C 185.43127,60.083299 -78.252176,135.5947 52.499763,150.53778 183.2517,165.48086 -56.595276,32.423122 25.293954,135.44506 107.18318,238.46699 31.671785,-25.216459 16.728707,105.53548 1.7856281,236.28742 134.84336,-3.5595594 31.821427,78.329671 -71.200508,160.2189 192.48294,84.707502 61.731003,69.764424 -69.020936,54.821345 170.82604,187.87908 88.936812,84.857144 7.0475817,-18.164791 82.558981,245.51866 97.50206,114.76672 112.44514,-15.985219 -20.612595,223.86176 82.40934,141.97253 Z"
       transform="matrix(-0.47510124,0.19679337,-0.19679337,-0.47510124,154.32671,192.72817)" />
    <path
       sodipodi:type="star"
       style="fill:#4f4f4f;fill-opacity:1;stroke-width:2;stroke-linejoin:round"
       id="path1-0-6-1-6"
       inkscape:flatsided="true"
       sodipodi:sides="8"
       sodipodi:cx="57.115383"
       sodipodi:cy="110.1511"
       sodipodi:r1="40.64957"
       sodipodi:r2="35.20356"
       sodipodi:arg1="0.89919017"
       sodipodi:arg2="1.2918893"
       inkscape:rounded="-4.23"
       inkscape:randomized="0"
       d="M 82.40934,141.97253 C 185.43127,60.083299 -78.252176,135.5947 52.499763,150.53778 183.2517,165.48086 -56.595276,32.423122 25.293954,135.44506 107.18318,238.46699 31.671785,-25.216459 16.728707,105.53548 1.7856281,236.28742 134.84336,-3.5595594 31.821427,78.329671 -71.200508,160.2189 192.48294,84.707502 61.731003,69.764424 -69.020936,54.821345 170.82604,187.87908 88.936812,84.857144 7.0475817,-18.164791 82.558981,245.51866 97.50206,114.76672 112.44514,-15.985219 -20.612595,223.86176 82.40934,141.97253 Z"
       transform="matrix(-0.41984219,-1.0979603e-8,1.0979603e-8,-0.41984219,129.90793,198.52439)" />
    <path
       sodipodi:type="star"
       style="fill:#404040;fill-opacity:1;stroke-width:2;stroke-linejoin:round"
       id="path1-0-6-1-6-7"
       inkscape:flatsided="true"
       sodipodi:sides="8"
       sodipodi:cx="57.115383"
       sodipodi:cy="110.1511"
       sodipodi:r1="40.64957"
       sodipodi:r2="35.20356"
       sodipodi:arg1="0.89919017"
       sodipodi:arg2="1.2918893"
       inkscape:rounded="-4.23"
       inkscape:randomized="0"
       d="M 82.40934,141.97253 C 185.43127,60.083299 -78.252176,135.5947 52.499763,150.53778 183.2517,165.48086 -56.595276,32.423122 25.293954,135.44506 107.18318,238.46699 31.671785,-25.216459 16.728707,105.53548 1.7856281,236.28742 134.84336,-3.5595594 31.821427,78.329671 -71.200508,160.2189 192.48294,84.707502 61.731003,69.764424 -69.020936,54.821345 170.82604,187.87908 88.936812,84.857144 7.0475817,-18.164791 82.558981,245.51866 97.50206,114.76672 112.44514,-15.985219 -20.612595,223.86176 82.40934,141.97253 Z"
       transform="matrix(-0.30406479,-0.12594776,0.12594776,-0.30406479,110.70517,193.34696)" />
    <path
       style="fill:#d9d9d9;fill-opacity:1;stroke:none;stroke-width:0;stroke-linecap:butt;stroke-linejoin:miter;stroke-dasharray:none;stroke-opacity:1"
       d="m 84.720118,110.64394 c 0,0 13.763682,-36.48043 43.295452,-36.747688 29.53178,-0.267256 -1.20265,20.17782 -1.20265,20.17782 0,0 -13.09554,-4.008837 -21.38047,7.082278 -8.28494,11.09112 -20.712332,9.48759 -20.712332,9.48759 z"
       id="path8" />
    <path
       style="fill:#d9d9d9;fill-opacity:1;stroke:none;stroke-width:0;stroke-linecap:butt;stroke-linejoin:miter;stroke-dasharray:none;stroke-opacity:1"
       d="m 145.52659,128.86821 c 0,0 36.48044,13.76368 36.7477,43.29544 0.26725,29.53178 -20.17782,-1.20265 -20.17782,-1.20265 0,0 4.00883,-13.09553 -7.08229,-21.38046 -11.09112,-8.28494 -9.48759,-20.71233 -9.48759,-20.71233 z"
       id="path8-3" />
    <path
       style="fill:#d9d9d9;fill-opacity:1;stroke:none;stroke-width:0;stroke-linecap:butt;stroke-linejoin:miter;stroke-dasharray:none;stroke-opacity:1"
       d="m 127.72995,191.02956 c 0,0 -13.76368,36.48044 -43.295442,36.7477 -29.53178,0.26725 1.20265,-20.17782 1.20265,-20.17782 0,0 13.09553,4.00883 21.380462,-7.08229 8.28494,-11.09112 20.71233,-9.48759 20.71233,-9.48759 z"
       id="path8-3-1" />
    <path
       style="fill:#d9d9d9;fill-opacity:1;stroke:none;stroke-width:0;stroke-linecap:butt;stroke-linejoin:miter;stroke-dasharray:none;stroke-opacity:1"
       d="m 64.932341,171.57596 c 0,0 -36.480444,-13.76368 -36.747704,-43.29544 -0.26725,-29.531784 20.17782,1.20265 20.17782,1.20265 0,0 -4.00883,13.09553 7.08229,21.38046 11.091124,8.28494 9.487594,20.71233 9.487594,20.71233 z"
       id="path8-3-1-3" />
    <path
       style="fill:#b3b3b3;fill-opacity:1;stroke:none;stroke-width:0;stroke-linecap:butt;stroke-linejoin:miter;stroke-dasharray:none;stroke-opacity:1"
       d="m 119.67169,108.58459 c 0,0 35.52795,-16.063172 56.59905,4.62996 21.0711,20.69315 -15.11828,13.41748 -15.11828,13.41748 0,0 -6.42527,-12.09463 -20.1262,-10.11035 -13.70094,1.98427 -21.35457,-7.93709 -21.35457,-7.93709 z"
       id="path8-6" />
    <path
       style="fill:#b3b3b3;fill-opacity:1;stroke:none;stroke-width:0;stroke-linecap:butt;stroke-linejoin:miter;stroke-dasharray:none;stroke-opacity:1"
       d="m 149.78185,164.46776 c 0,0 16.06318,35.52796 -4.62995,56.59905 -20.69315,21.07109 -13.41747,-15.11828 -13.41747,-15.11828 0,0 12.09461,-6.42527 10.11033,-20.1262 -1.98427,-13.70095 7.93709,-21.35457 7.93709,-21.35457 z"
       id="path8-3-18" />
    <path
       style="fill:#b3b3b3;fill-opacity:1;stroke:none;stroke-width:0;stroke-linecap:butt;stroke-linejoin:miter;stroke-dasharray:none;stroke-opacity:1"
       d="m 93.243018,195.83835 c 0,0 -35.527958,16.06317 -56.599047,-4.62996 -21.071096,-20.69314 15.118276,-13.41747 15.118276,-13.41747 0,0 6.425267,12.09461 20.126203,10.11034 13.700944,-1.98427 21.354568,7.93709 21.354568,7.93709 z"
       id="path8-3-1-7" />
    <path
       style="fill:#b3b3b3;fill-opacity:1;stroke:none;stroke-width:0;stroke-linecap:butt;stroke-linejoin:miter;stroke-dasharray:none;stroke-opacity:1"
       d="m 62.594177,137.67796 c 0,0 -16.063178,-35.52796 4.629948,-56.599052 20.69315,-21.071099 13.417471,15.118275 13.417471,15.118275 0,0 -12.094609,6.425267 -10.110333,20.126207 1.984272,13.70095 -7.937086,21.35457 -7.937086,21.35457 z"
       id="path8-3-1-3-9" />
    <path
       style="fill:#cccccc;fill-opacity:1;stroke:none;stroke-width:0;stroke-linecap:butt;stroke-linejoin:miter;stroke-dasharray:none;stroke-opacity:1"
       d="m 138.66426,116.70637 c 0,0 38.97065,-1.24448 50.51889,25.93704 11.54823,27.18155 -19.10212,6.61063 -19.10212,6.61063 0,0 -1.30776,-13.63283 -14.72511,-17.04271 -13.41737,-3.4099 -16.69166,-15.50496 -16.69166,-15.50496 z"
       id="path8-6-7" />
    <path
       style="fill:#cccccc;fill-opacity:1;stroke:none;stroke-width:0;stroke-linecap:butt;stroke-linejoin:miter;stroke-dasharray:none;stroke-opacity:1"
       d="m 141.08802,180.79375 c 0,0 1.24448,38.97067 -25.93703,50.5189 -27.181542,11.54822 -6.61061,-19.10211 -6.61061,-19.10211 0,0 13.6328,-1.30777 17.04268,-14.72513 3.40991,-13.41738 15.50496,-16.69166 15.50496,-16.69166 z"
       id="path8-3-18-5" />
    <path
       style="fill:#cccccc;fill-opacity:1;stroke:none;stroke-width:0;stroke-linecap:butt;stroke-linejoin:miter;stroke-dasharray:none;stroke-opacity:1"
       d="m 79.386874,186.40275 c 0,0 -38.970662,1.24448 -50.518892,-25.93704 -11.548232,-27.18153 19.10211,-6.61061 19.10211,-6.61061 0,0 1.307765,13.6328 14.725127,17.0427 13.417369,3.4099 16.691655,15.50495 16.691655,15.50495 z"
       id="path8-3-1-7-9" />
    <path
       style="fill:#cccccc;fill-opacity:1;stroke:none;stroke-width:0;stroke-linecap:butt;stroke-linejoin:miter;stroke-dasharray:none;stroke-opacity:1"
       d="m 71.590892,121.20801 c 0,0 -1.244478,-38.970668 25.937035,-50.518903 27.181533,-11.548231 6.610613,19.102109 6.610613,19.102109 0,0 -13.632805,1.307766 -17.042695,14.725134 -3.4099,13.41738 -15.504953,16.69166 -15.504953,16.69166 z"
       id="path8-3-1-3-9-2" />
    <path
       style="fill:#cccccc;fill-opacity:1;stroke:none;stroke-width:0;stroke-linecap:butt;stroke-linejoin:miter;stroke-dasharray:none;stroke-opacity:1"
       d="m 150.62938,143.46259 c 0,0 28.43639,26.67643 17.38199,54.06251 -11.05443,27.38609 -18.18166,-8.83282 -18.18166,-8.83282 0,0 8.71514,-10.56459 1.63879,-22.46324 -7.07635,-11.89868 -0.83912,-22.76645 -0.83912,-22.76645 z"
       id="path8-6-7-3" />
    <path
       style="fill:#cccccc;fill-opacity:1;stroke:none;stroke-width:0;stroke-linecap:butt;stroke-linejoin:miter;stroke-dasharray:none;stroke-opacity:1"
       d="m 108.36289,198.37712 c 0,0 -26.676441,28.43641 -54.062501,17.38201 -27.38608,-11.05443 8.83282,-18.18164 8.83282,-18.18164 0,0 10.56458,8.71511 22.46323,1.63875 11.8987,-7.07635 22.766451,-0.83912 22.766451,-0.83912 z"
       id="path8-3-18-5-6" />
    <path
       style="fill:#cccccc;fill-opacity:1;stroke:none;stroke-width:0;stroke-linecap:butt;stroke-linejoin:miter;stroke-dasharray:none;stroke-opacity:1"
       d="m 59.43115,150.82993 c 0,0 -28.436399,-26.67644 -17.381994,-54.062512 11.054414,-27.386074 18.181644,8.832832 18.181644,8.832832 0,0 -8.71512,10.56457 -1.63877,22.46325 7.07635,11.89867 0.83912,22.76643 0.83912,22.76643 z"
       id="path8-3-1-7-9-1" />
    <path
       style="fill:#cccccc;fill-opacity:1;stroke:none;stroke-width:0;stroke-linecap:butt;stroke-linejoin:miter;stroke-dasharray:none;stroke-opacity:1"
       d="m 106.96685,104.29556 c 0,0 26.67644,-28.436404 54.06251,-17.382 27.38608,11.05441 -8.83282,18.18164 -8.83282,18.18164 0,0 -10.56458,-8.71512 -22.46325,-1.63877 -11.89868,7.07635 -22.76644,0.83913 -22.76644,0.83913 z"
       id="path8-3-1-3-9-2-2" />
  </g>
</svg>
