<svg xmlns="http://www.w3.org/2000/svg" width="210mm" height="297mm" viewBox="0 0 210 297"><defs><filter id="a" width="1.601" height="1.591" x="-.301" y="-.296" style="color-interpolation-filters:sRGB"><feFlood flood-color="#FFF" result="result2"/><feGaussianBlur in="SourceAlpha" result="result1" stdDeviation="17"/><feComposite in2="result1" operator="in" result="result17"/><feComposite in="result17" in2="result2" result="fbSourceGraphic"/><feComponentTransfer in="fbSourceGraphic" result="result9"><feFuncR tableValues="0 1 0 1 0 1 0 1 0 1 0 1 0 1 0 1 0 1 1" type="table"/><feFuncG tableValues="0 1 0 1 0 1 0 1 0 1 0 1 0 1 0 1 0 1 1" type="table"/><feFuncB tableValues="0 1 0 1 0 1 0 1 0 1 0 1 0 1 0 1 0 1 1" type="table"/></feComponentTransfer><feColorMatrix in="result9" result="result6" values="1 0 0 0 0 0 1 0 0 0 0 0 1 0 0 -0.21 -0.72 -0.07 1 0"/><feFlood flood-color="gray" result="result8"/><feComposite in2="result6" operator="in" result="fbSourceGraphic"/><feColorMatrix in="fbSourceGraphic" result="fbSourceGraphicAlpha" values="0 0 0 -1 0 0 0 0 -1 0 0 0 0 -1 0 0 0 0 1 0"/><feComposite in="fbSourceGraphic" in2="fbSourceGraphic" k2="1" operator="arithmetic" result="composite1"/><feColorMatrix in="composite1" result="colormatrix1" type="saturate" values="1"/><feFlood flood-color="#5CD65C" flood-opacity="1" result="flood1"/><feBlend in="flood1" in2="colormatrix1" mode="multiply" result="blend1"/><feBlend in2="blend1" mode="screen" result="blend2"/><feColorMatrix in="blend2" result="colormatrix2" type="saturate" values="1"/><feComposite in="colormatrix2" in2="fbSourceGraphic" k2="1" operator="in" result="fbSourceGraphic"/><feColorMatrix in="fbSourceGraphic" result="fbSourceGraphicAlpha" values="0 0 0 -1 0 0 0 0 -1 0 0 0 0 -1 0 0 0 0 1 0"/><feGaussianBlur in="fbSourceGraphicAlpha" result="result0" stdDeviation="2.3"/><feMorphology in="fbSourceGraphicAlpha" radius="6.5" result="result1"/><feGaussianBlur in="result1" stdDeviation="7"/><feColorMatrix result="result91" values="1 0 0 0 0 0 1 0 0 0 0 0 1 0 0 0 0 0 0.3 0"/><feComposite in="result0" in2="result91" operator="out" result="result2"/><feDiffuseLighting surfaceScale="10"><feDistantLight azimuth="225" elevation="45"/></feDiffuseLighting><feBlend in2="fbSourceGraphic" mode="multiply"/><feComposite in2="fbSourceGraphicAlpha" operator="in" result="result3"/><feGaussianBlur in="result3" result="result4" stdDeviation="1"/><feComposite in2="result3" operator="atop"/></filter></defs><path d="M109.48 60.511c20.673 34.165 21.303 64.823 2.051 99.808-19.25 34.985-45.487 50.86-85.41 51.68-39.924.82-66.79-13.964-87.462-48.128s-21.302-64.824-2.05-99.808c19.25-34.985 45.487-50.86 85.41-51.68 39.924-.82 66.79 13.964 87.462 48.128" style="fill:#009;fill-opacity:1;fill-rule:nonzero;stroke:none;stroke-width:2;stroke-linejoin:round;stroke-opacity:1" transform="translate(83.014 36.397)"/><path d="M109.48 60.511c-74.935-123.846-67.734 226.627 2.051 99.808 69.786-126.819-230.132 54.653-85.41 51.68 144.72-2.974-162.397-171.974-87.462-48.128C13.595 287.716 6.394-62.756-63.39 64.063c-69.786 126.819 230.132-54.653 85.41-51.68-144.72 2.973 162.398 171.974 87.462 48.128" style="display:inline;fill:#f17979;fill-opacity:1;fill-rule:nonzero;stroke:none;stroke-width:2;stroke-linejoin:round;stroke-opacity:1;filter:url(#a)" transform="translate(82.817 36.31)"/></svg>