<?xml version="1.0" encoding="UTF-8" standalone="no"?>
<svg
   width="200mm"
   height="200mm"
   viewBox="0 0 200 200"
   version="1.1"
   id="svg79"
   sodipodi:docname="vatsech symbol.svg"
   inkscape:version="1.4.2 (ebf0e940d0, 2025-05-08)"
   inkscape:export-filename="vatsech symbol.png"
   inkscape:export-xdpi="65.019997"
   inkscape:export-ydpi="65.019997"
   xmlns:inkscape="http://www.inkscape.org/namespaces/inkscape"
   xmlns:sodipodi="http://sodipodi.sourceforge.net/DTD/sodipodi-0.dtd"
   xmlns="http://www.w3.org/2000/svg"
   xmlns:svg="http://www.w3.org/2000/svg">
  <defs
     id="defs79" />
  <sodipodi:namedview
     id="namedview79"
     pagecolor="#ffffff"
     bordercolor="#666666"
     borderopacity="1.0"
     inkscape:showpageshadow="2"
     inkscape:pageopacity="0.0"
     inkscape:pagecheckerboard="0"
     inkscape:deskcolor="#d1d1d1"
     inkscape:document-units="mm"
     inkscape:export-bgcolor="#00101aff"
     inkscape:zoom="2.52"
     inkscape:cx="375.59524"
     inkscape:cy="371.23016"
     inkscape:window-width="1908"
     inkscape:window-height="1019"
     inkscape:window-x="0"
     inkscape:window-y="0"
     inkscape:window-maximized="0"
     inkscape:current-layer="svg79" />
  <path
     d="m 99.841492,16.62394 70.798928,39.221854 1.43154,80.924096 -69.36653,41.70312 -70.798931,-39.22186 -1.43241,-80.92497 z"
     style="fill:#9999ff;fill-opacity:1;stroke:#7288ff;stroke-width:1.7554;stroke-opacity:0"
     id="path1" />
  <path
     d="M 76.681378,30.680926 100.31256,43.747509 100.79037,70.707005 77.637301,84.600209 54.006123,71.533626 53.528015,44.573838 Z"
     style="fill:#0000cc;fill-opacity:1;stroke:#7288ff;stroke-width:0.58536;stroke-opacity:0"
     id="path2" />
  <path
     d="m 123.48322,29.950946 23.63118,13.066583 0.47781,26.959496 -23.15307,13.893204 -23.63117,-13.066583 -0.47811,-26.959788 z"
     style="fill:#0000cc;fill-opacity:1;stroke:#7288ff;stroke-width:0.58536;stroke-opacity:0"
     id="path3" />
  <path
     d="m 147.54982,69.802598 23.63117,13.066583 0.47782,26.959499 -23.15307,13.8932 -23.63118,-13.06658 -0.47811,-26.95979 z"
     style="fill:#0000cc;fill-opacity:1;stroke:#7288ff;stroke-width:0.58536;stroke-opacity:0"
     id="path4" />
  <path
     d="m 54.044945,71.437446 23.631178,13.066584 0.477814,26.9595 -23.15307,13.8932 L 31.36969,112.29015 30.891582,85.330359 Z"
     style="fill:#0000cc;fill-opacity:1;stroke:#7288ff;stroke-width:0.58536;stroke-opacity:0"
     id="path5" />
  <path
     d="m 78.10007,111.36022 23.63118,13.06658 0.47781,26.9595 -23.153067,13.8932 -23.631178,-13.06658 -0.478108,-26.95979 z"
     style="fill:#0000cc;fill-opacity:1;stroke:#7288ff;stroke-width:0.58536;stroke-opacity:0"
     id="path6" />
  <path
     d="m 94.603547,156.06217 7.846933,4.33883 0.15866,8.95207 -7.688171,4.61332 -7.846931,-4.33884 -0.15876,-8.95216 z"
     style="fill:#000066;fill-opacity:1;stroke:#7288ff;stroke-width:0.194373;stroke-opacity:0"
     id="path7" />
  <path
     d="m 110.06006,155.78866 7.84693,4.33884 0.15866,8.95206 -7.68817,4.61332 -7.84693,-4.33883 -0.15876,-8.95216 z"
     style="fill:#000066;fill-opacity:1;stroke:#7288ff;stroke-width:0.194373;stroke-opacity:0"
     id="path8" />
  <path
     d="m 93.827149,101.96041 7.846931,4.33884 0.15866,8.95206 -7.688169,4.61332 -7.846932,-4.33884 -0.15876,-8.95215 z"
     style="fill:#000066;fill-opacity:1;stroke:#7288ff;stroke-width:0.194373;stroke-opacity:0"
     id="path9" />
  <path
     d="m 109.34983,101.74514 7.84693,4.33883 0.15866,8.95207 -7.68817,4.61332 -7.84693,-4.33884 -0.15876,-8.95216 z"
     style="fill:#000066;fill-opacity:1;stroke:#7288ff;stroke-width:0.194373;stroke-opacity:0"
     id="path10" />
  <path
     d="m 93.250143,75.22318 7.846927,4.338838 0.15867,8.952062 -7.688175,4.613322 -7.846931,-4.338837 -0.15876,-8.95216 z"
     style="fill:#000066;fill-opacity:1;stroke:#7288ff;stroke-width:0.194373;stroke-opacity:0"
     id="path11" />
  <path
     d="m 108.76577,74.965557 7.84693,4.338838 0.15866,8.952062 -7.68817,4.613322 -7.84693,-4.338838 -0.15876,-8.952159 z"
     style="fill:#000066;fill-opacity:1;stroke:#7288ff;stroke-width:0.194373;stroke-opacity:0"
     id="path12" />
  <path
     d="m 92.244354,21.536092 7.846936,4.338838 0.15866,8.952062 -7.688174,4.613322 -7.846932,-4.338837 -0.158759,-8.95216 z"
     style="fill:#000066;fill-opacity:1;stroke:#7288ff;stroke-width:0.194373;stroke-opacity:0"
     id="path13" />
  <path
     d="m 107.80144,21.322583 7.84693,4.338837 0.15867,8.952062 -7.68818,4.613322 -7.84693,-4.338837 -0.15876,-8.952159 z"
     style="fill:#000066;fill-opacity:1;stroke:#7288ff;stroke-width:0.194373;stroke-opacity:0"
     id="path14" />
  <path
     d="m 85.739368,88.737811 7.846932,4.338838 0.158662,8.952061 -7.688172,4.61332 -7.846932,-4.33883 -0.158759,-8.952164 z"
     style="fill:#000066;fill-opacity:1;stroke:#7288ff;stroke-width:0.194373;stroke-opacity:0"
     id="path15" />
  <path
     d="m 45.791008,49.254408 7.846932,4.338838 0.158662,8.952062 -7.688172,4.613322 -7.846932,-4.338837 -0.158759,-8.95216 z"
     style="fill:#000066;fill-opacity:1;stroke:#7288ff;stroke-width:0.194373;stroke-opacity:0"
     id="path16" />
  <path
     d="m 48.694788,68.696287 2.60402,1.440628 0.05265,2.972362 -2.551335,1.531765 -2.60402,-1.440628 -0.05268,-2.972393 z"
     style="fill:#000033;fill-opacity:1;stroke:#7288ff;stroke-width:0.0645205;stroke-opacity:0"
     id="path17" />
  <path
     d="m 51.13515,64.200233 2.60402,1.440628 0.05265,2.972361 -2.551335,1.531766 -2.60402,-1.440628 -0.05269,-2.972394 z"
     style="fill:#000033;fill-opacity:1;stroke:#7288ff;stroke-width:0.0645205;stroke-opacity:0"
     id="path18" />
  <path
     d="m 80.550956,85.842347 2.60402,1.440628 0.05265,2.972361 -2.551335,1.531766 -2.60402,-1.440628 -0.05268,-2.972394 z"
     style="fill:#000033;fill-opacity:1;stroke:#7288ff;stroke-width:0.0645205;stroke-opacity:0"
     id="path19" />
  <path
     d="m 82.991318,81.34541 2.60402,1.440628 0.05265,2.972362 -2.551335,1.531765 -2.60402,-1.440628 -0.05269,-2.972394 z"
     style="fill:#000033;fill-opacity:1;stroke:#7288ff;stroke-width:0.0645205;stroke-opacity:0"
     id="path20" />
  <path
     d="m 119.6691,107.62386 2.60402,1.44063 0.0526,2.97236 -2.55133,1.53176 -2.60402,-1.44062 -0.0527,-2.9724 z"
     style="fill:#000033;fill-opacity:1;stroke:#7288ff;stroke-width:0.0645205;stroke-opacity:0"
     id="path21" />
  <path
     d="m 122.10946,103.12692 2.60402,1.44063 0.0526,2.97236 -2.55133,1.53177 -2.60402,-1.44063 -0.0527,-2.97239 z"
     style="fill:#000033;fill-opacity:1;stroke:#7288ff;stroke-width:0.0645205;stroke-opacity:0"
     id="path22" />
  <path
     d="m 33.139464,59.893867 2.60402,1.440628 0.05265,2.972361 -2.551335,1.531766 -2.60402,-1.440628 -0.05269,-2.972394 z"
     style="fill:#000033;fill-opacity:1;stroke:#7288ff;stroke-width:0.0645205;stroke-opacity:0"
     id="path23" />
  <path
     d="m 33.482667,77.754566 2.60402,1.440628 0.05265,2.972362 -2.551335,1.531765 -2.60402,-1.440628 -0.05268,-2.972394 z"
     style="fill:#000033;fill-opacity:1;stroke:#7288ff;stroke-width:0.0645205;stroke-opacity:0"
     id="path24" />
  <path
     d="m 50.926934,46.352768 2.60402,1.440628 0.05265,2.972361 -2.551335,1.531766 -2.60402,-1.440628 -0.05269,-2.972394 z"
     style="fill:#000033;fill-opacity:1;stroke:#7288ff;stroke-width:0.0645205;stroke-opacity:0"
     id="path25" />
  <path
     d="m 35.579826,55.39693 2.60402,1.440629 0.05265,2.972361 -2.551335,1.531765 -2.60402,-1.440628 -0.05268,-2.972393 z"
     style="fill:#000033;fill-opacity:1;stroke:#7288ff;stroke-width:0.0645205;stroke-opacity:0"
     id="path26" />
  <path
     d="m 166.5479,133.68543 2.60402,1.44062 0.0526,2.97237 -2.55133,1.53176 -2.60402,-1.44063 -0.0527,-2.97239 z"
     style="fill:#000033;fill-opacity:1;stroke:#7288ff;stroke-width:0.0645205;stroke-opacity:0"
     id="path27" />
  <path
     d="m 168.98826,129.18849 2.60402,1.44063 0.0527,2.97236 -2.55134,1.53176 -2.60402,-1.44062 -0.0527,-2.9724 z"
     style="fill:#000033;fill-opacity:1;stroke:#7288ff;stroke-width:0.0645205;stroke-opacity:0"
     id="path28" />
  <path
     d="m 151.21824,125.05225 2.60402,1.44062 0.0526,2.97237 -2.55134,1.53176 -2.60402,-1.44063 -0.0527,-2.97239 z"
     style="fill:#000033;fill-opacity:1;stroke:#7288ff;stroke-width:0.0645205;stroke-opacity:0"
     id="path29" />
  <path
     d="m 151.56056,142.91295 2.60402,1.44062 0.0526,2.97236 -2.55133,1.53177 -2.60402,-1.44063 -0.0527,-2.97239 z"
     style="fill:#000033;fill-opacity:1;stroke:#7288ff;stroke-width:0.0645205;stroke-opacity:0"
     id="path30" />
  <path
     d="m 168.89288,111.45385 2.60402,1.44063 0.0526,2.97236 -2.55134,1.53177 -2.60402,-1.44063 -0.0527,-2.97239 z"
     style="fill:#000033;fill-opacity:1;stroke:#7288ff;stroke-width:0.0645205;stroke-opacity:0"
     id="path31" />
  <path
     d="m 153.6586,120.55531 2.60402,1.44063 0.0526,2.97236 -2.55133,1.53176 -2.60402,-1.44062 -0.0527,-2.9724 z"
     style="fill:#000033;fill-opacity:1;stroke:#7288ff;stroke-width:0.0645205;stroke-opacity:0"
     id="path32" />
  <path
     d="m 167.93016,57.699607 2.60402,1.440628 0.0527,2.972361 -2.55134,1.531766 -2.60402,-1.440628 -0.0527,-2.972394 z"
     style="fill:#000033;fill-opacity:1;stroke:#7288ff;stroke-width:0.0645205;stroke-opacity:0"
     id="path33" />
  <path
     d="m 165.3214,53.286486 2.60402,1.440628 0.0526,2.972362 -2.55133,1.531765 -2.60402,-1.440628 -0.0527,-2.972394 z"
     style="fill:#000033;fill-opacity:1;stroke:#7288ff;stroke-width:0.0645205;stroke-opacity:0"
     id="path34" />
  <path
     d="m 121.63921,85.21417 2.60402,1.440628 0.0526,2.972361 -2.55133,1.531765 -2.60402,-1.440628 -0.0527,-2.972393 z"
     style="fill:#000033;fill-opacity:1;stroke:#7288ff;stroke-width:0.0645205;stroke-opacity:0"
     id="path35" />
  <path
     d="m 119.14327,80.801049 2.60402,1.440628 0.0526,2.972361 -2.55134,1.531766 -2.60402,-1.440628 -0.0527,-2.972394 z"
     style="fill:#000033;fill-opacity:1;stroke:#7288ff;stroke-width:0.0645205;stroke-opacity:0"
     id="path36" />
  <path
     d="m 83.79595,108.4232 2.60402,1.44063 0.05265,2.97236 -2.551335,1.53176 -2.60402,-1.44063 -0.05269,-2.97239 z"
     style="fill:#000033;fill-opacity:1;stroke:#7288ff;stroke-width:0.0645205;stroke-opacity:0"
     id="path37" />
  <path
     d="m 81.299122,104.01008 2.60402,1.44062 0.05265,2.97237 -2.551336,1.53176 -2.604019,-1.44063 -0.05268,-2.97239 z"
     style="fill:#000033;fill-opacity:1;stroke:#7288ff;stroke-width:0.0645205;stroke-opacity:0"
     id="path38" />
  <path
     d="m 52.290043,126.98266 2.60402,1.44062 0.05265,2.97236 -2.551335,1.53177 -2.60402,-1.44063 -0.05269,-2.97239 z"
     style="fill:#000033;fill-opacity:1;stroke:#7288ff;stroke-width:0.0645205;stroke-opacity:0"
     id="path39" />
  <path
     d="m 49.794098,122.56953 2.60402,1.44063 0.05265,2.97236 -2.551335,1.53177 -2.60402,-1.44063 -0.05268,-2.97239 z"
     style="fill:#000033;fill-opacity:1;stroke:#7288ff;stroke-width:0.0645205;stroke-opacity:0"
     id="path40" />
  <path
     d="m 37.480087,136.39536 2.604019,1.44063 0.05265,2.97236 -2.551335,1.53176 -2.60402,-1.44062 -0.05269,-2.9724 z"
     style="fill:#000033;fill-opacity:1;stroke:#7288ff;stroke-width:0.0645205;stroke-opacity:0"
     id="path41" />
  <path
     d="m 52.705836,144.87495 2.60402,1.44063 0.05265,2.97236 -2.551335,1.53176 -2.60402,-1.44063 -0.05268,-2.97239 z"
     style="fill:#000033;fill-opacity:1;stroke:#7288ff;stroke-width:0.0645205;stroke-opacity:0"
     id="path42" />
  <path
     d="m 34.178779,114.01768 2.60402,1.44063 0.05265,2.97236 -2.551335,1.53176 -2.60402,-1.44062 -0.05268,-2.9724 z"
     style="fill:#000033;fill-opacity:1;stroke:#7288ff;stroke-width:0.0645205;stroke-opacity:0"
     id="path43" />
  <path
     d="m 34.801285,132.01188 2.60402,1.44063 0.05265,2.97236 -2.551335,1.53177 -2.60402,-1.44063 -0.05268,-2.9724 z"
     style="fill:#000033;fill-opacity:1;stroke:#7288ff;stroke-width:0.0645205;stroke-opacity:0"
     id="path44" />
  <path
     d="m 104.57344,116.71478 2.60402,1.44063 0.0526,2.97236 -2.55133,1.53177 -2.60402,-1.44063 -0.0527,-2.97239 z"
     style="fill:#000033;fill-opacity:1;stroke:#7288ff;stroke-width:0.0645205;stroke-opacity:0"
     id="path45" />
  <path
     d="m 99.424503,116.77125 2.604017,1.44063 0.0527,2.97236 -2.55134,1.53176 -2.60402,-1.44063 -0.05268,-2.97239 z"
     style="fill:#000033;fill-opacity:1;stroke:#7288ff;stroke-width:0.0645205;stroke-opacity:0"
     id="path46" />
  <path
     d="m 104.75783,152.79791 2.60402,1.44063 0.0526,2.97236 -2.55133,1.53177 -2.60402,-1.44063 -0.0527,-2.97239 z"
     style="fill:#000033;fill-opacity:1;stroke:#7288ff;stroke-width:0.0645205;stroke-opacity:0"
     id="path47" />
  <path
     d="m 120.43133,161.54781 2.60402,1.44063 0.0526,2.97236 -2.55134,1.53176 -2.60402,-1.44062 -0.0527,-2.9724 z"
     style="fill:#000033;fill-opacity:1;stroke:#7288ff;stroke-width:0.0645205;stroke-opacity:0"
     id="path48" />
  <path
     d="m 84.225616,162.24086 2.60402,1.44063 0.05265,2.97236 -2.551335,1.53177 -2.60402,-1.44063 -0.05268,-2.9724 z"
     style="fill:#000033;fill-opacity:1;stroke:#7288ff;stroke-width:0.0645205;stroke-opacity:0"
     id="path49" />
  <path
     d="m 99.608898,152.8535 2.604022,1.44062 0.0526,2.97236 -2.551335,1.53177 -2.60402,-1.44063 -0.05268,-2.97239 z"
     style="fill:#000033;fill-opacity:1;stroke:#7288ff;stroke-width:0.0645205;stroke-opacity:0"
     id="path50" />
  <path
     d="m 105.14208,170.75458 2.60402,1.44063 0.0526,2.97236 -2.55133,1.53176 -2.60402,-1.44063 -0.0527,-2.97239 z"
     style="fill:#000033;fill-opacity:1;stroke:#7288ff;stroke-width:0.0645205;stroke-opacity:0"
     id="path51" />
  <path
     d="m 99.992261,170.81104 2.604019,1.44063 0.0526,2.97236 -2.55133,1.53177 -2.60402,-1.44063 -0.05269,-2.97239 z"
     style="fill:#000033;fill-opacity:1;stroke:#7288ff;stroke-width:0.0645205;stroke-opacity:0"
     id="path52" />
  <path
     d="m 102.47153,18.449716 2.60402,1.440628 0.0526,2.972361 -2.55134,1.531765 -2.604017,-1.440628 -0.05268,-2.972393 z"
     style="fill:#000033;fill-opacity:1;stroke:#7288ff;stroke-width:0.0645205;stroke-opacity:0"
     id="path53" />
  <path
     d="m 117.9769,27.539216 2.60402,1.440628 0.0527,2.972361 -2.55134,1.531765 -2.60402,-1.440628 -0.0527,-2.972393 z"
     style="fill:#000033;fill-opacity:1;stroke:#7288ff;stroke-width:0.0645205;stroke-opacity:0"
     id="path54" />
  <path
     d="m 82.233447,27.780076 2.60402,1.440628 0.05265,2.972361 -2.551335,1.531765 -2.60402,-1.440628 -0.05268,-2.972393 z"
     style="fill:#000033;fill-opacity:1;stroke:#7288ff;stroke-width:0.0645205;stroke-opacity:0"
     id="path55" />
  <path
     d="m 97.436061,18.506181 2.604019,1.440628 0.0526,2.972361 -2.551335,1.531766 -2.604019,-1.440628 -0.05269,-2.972394 z"
     style="fill:#000033;fill-opacity:1;stroke:#7288ff;stroke-width:0.0645205;stroke-opacity:0"
     id="path56" />
  <path
     d="m 102.75276,36.431121 2.60402,1.440628 0.0526,2.972361 -2.55134,1.531766 -2.60402,-1.440628 -0.0527,-2.972394 z"
     style="fill:#000033;fill-opacity:1;stroke:#7288ff;stroke-width:0.0645205;stroke-opacity:0"
     id="path57" />
  <path
     d="m 97.602941,36.374115 2.604019,1.440628 0.0526,2.972362 -2.551336,1.531765 -2.604019,-1.440628 -0.05268,-2.972394 z"
     style="fill:#000033;fill-opacity:1;stroke:#7288ff;stroke-width:0.0645205;stroke-opacity:0"
     id="path58" />
  <path
     d="m 104.19053,98.951133 2.60402,1.440627 0.0526,2.97236 -2.55133,1.53177 -2.60402,-1.44063 -0.0527,-2.97239 z"
     style="fill:#000033;fill-opacity:1;stroke:#7288ff;stroke-width:0.0645205;stroke-opacity:0"
     id="path59" />
  <path
     d="m 106.66707,94.478018 2.60402,1.440628 0.0526,2.972361 -2.55134,1.531763 -2.60402,-1.440625 -0.0527,-2.972394 z"
     style="fill:#000033;fill-opacity:1;stroke:#7288ff;stroke-width:0.0645205;stroke-opacity:0"
     id="path60" />
  <path
     d="m 96.301263,94.657119 2.604019,1.440628 0.05265,2.972361 -2.551335,1.531762 -2.60402,-1.440624 -0.05269,-2.972394 z"
     style="fill:#000033;fill-opacity:1;stroke:#7288ff;stroke-width:0.0645205;stroke-opacity:0"
     id="path61" />
  <path
     d="m 99.041597,99.007598 2.604023,1.440632 0.0526,2.97236 -2.551336,1.53176 -2.60402,-1.44062 -0.05268,-2.9724 z"
     style="fill:#000033;fill-opacity:1;stroke:#7288ff;stroke-width:0.0645205;stroke-opacity:0"
     id="path62" />
  <path
     d="m 103.92056,90.094012 2.60402,1.440628 0.0526,2.972361 -2.55134,1.531766 -2.60402,-1.440628 -0.0527,-2.972394 z"
     style="fill:#000033;fill-opacity:1;stroke:#7288ff;stroke-width:0.0645205;stroke-opacity:0"
     id="path63" />
  <path
     d="m 98.771622,90.149595 2.604018,1.440628 0.0526,2.972361 -2.551331,1.531766 -2.60402,-1.440628 -0.05268,-2.972394 z"
     style="fill:#000033;fill-opacity:1;stroke:#7288ff;stroke-width:0.0645205;stroke-opacity:0"
     id="path64" />
  <path
     d="m 103.42207,72.163613 2.60402,1.440628 0.0527,2.972362 -2.55134,1.531765 -2.60402,-1.440628 -0.0527,-2.972393 z"
     style="fill:#000033;fill-opacity:1;stroke:#7288ff;stroke-width:0.0645205;stroke-opacity:0"
     id="path65" />
  <path
     d="m 98.272257,72.219196 2.604023,1.440628 0.0526,2.972362 -2.551336,1.531765 -2.60402,-1.440628 -0.05268,-2.972393 z"
     style="fill:#000033;fill-opacity:1;stroke:#7288ff;stroke-width:0.0645205;stroke-opacity:0"
     id="path66" />
  <path
     d="m 153.1557,67.079966 2.60402,1.440628 0.0527,2.972362 -2.55134,1.531765 -2.60402,-1.440628 -0.0527,-2.972393 z"
     style="fill:#000033;fill-opacity:1;stroke:#7288ff;stroke-width:0.0645205;stroke-opacity:0"
     id="path67" />
  <path
     d="m 149.73337,44.94731 2.60402,1.440628 0.0527,2.972361 -2.55134,1.531766 -2.60402,-1.440629 -0.0527,-2.972393 z"
     style="fill:#000033;fill-opacity:1;stroke:#7288ff;stroke-width:0.0645205;stroke-opacity:0"
     id="path68" />
  <path
     d="m 168.3493,75.62741 2.60402,1.440628 0.0526,2.972362 -2.55134,1.531765 -2.60402,-1.440628 -0.0527,-2.972394 z"
     style="fill:#000033;fill-opacity:1;stroke:#7288ff;stroke-width:0.0645205;stroke-opacity:0"
     id="path69" />
  <path
     d="m 150.40743,62.834477 2.60402,1.440628 0.0526,2.972361 -2.55133,1.531766 -2.60402,-1.440628 -0.0527,-2.972394 z"
     style="fill:#000033;fill-opacity:1;stroke:#7288ff;stroke-width:0.0645205;stroke-opacity:0"
     id="path70" />
  <path
     d="m 38.346403,62.774333 7.846932,4.338837 0.158662,8.952063 -7.688172,4.613322 -7.846931,-4.338838 -0.15876,-8.952159 z"
     style="fill:#000066;fill-opacity:1;stroke:#7288ff;stroke-width:0.194373;stroke-opacity:0"
     id="path71" />
  <path
     d="m 47.544081,130.17809 7.846932,4.33884 0.158662,8.95206 -7.688172,4.61332 -7.846932,-4.33883 -0.158759,-8.95216 z"
     style="fill:#000066;fill-opacity:1;stroke:#7288ff;stroke-width:0.194373;stroke-opacity:0"
     id="path72" />
  <path
     d="m 39.55335,116.95638 7.846932,4.33883 0.158662,8.95206 -7.688172,4.61333 -7.846931,-4.33884 -0.15876,-8.95216 z"
     style="fill:#000066;fill-opacity:1;stroke:#7288ff;stroke-width:0.194373;stroke-opacity:0"
     id="path73" />
  <path
     d="m 116.78473,88.209331 7.84693,4.338837 0.15866,8.952062 -7.68817,4.61332 -7.84693,-4.33883 -0.15876,-8.952164 z"
     style="fill:#000066;fill-opacity:1;stroke:#7288ff;stroke-width:0.194373;stroke-opacity:0"
     id="path74" />
  <path
     d="m 155.02236,47.607208 7.84694,4.338837 0.15866,8.952063 -7.68817,4.613322 -7.84693,-4.338838 -0.15876,-8.952159 z"
     style="fill:#000066;fill-opacity:1;stroke:#7288ff;stroke-width:0.194373;stroke-opacity:0"
     id="path75" />
  <path
     d="m 163.04221,60.833336 7.84693,4.338838 0.15866,8.952062 -7.68817,4.613322 -7.84693,-4.338837 -0.15876,-8.95216 z"
     style="fill:#000066;fill-opacity:1;stroke:#7288ff;stroke-width:0.194373;stroke-opacity:0"
     id="path76" />
  <path
     d="m 156.37048,127.86389 7.84693,4.33884 0.15866,8.95206 -7.68817,4.61333 -7.84693,-4.33884 -0.15876,-8.95216 z"
     style="fill:#000066;fill-opacity:1;stroke:#7288ff;stroke-width:0.194373;stroke-opacity:0"
     id="path77" />
  <path
     d="m 163.84772,114.35544 7.84694,4.33884 0.15866,8.95206 -7.68817,4.61332 -7.84694,-4.33884 -0.15876,-8.95216 z"
     style="fill:#000066;fill-opacity:1;stroke:#7288ff;stroke-width:0.194373;stroke-opacity:0"
     id="path78" />
  <path
     d="m 124.88339,110.53265 23.63117,13.06658 0.47782,26.9595 -23.15307,13.8932 -23.63118,-13.06658 -0.47811,-26.95979 z"
     style="fill:#0000cc;fill-opacity:1;stroke:#7288ff;stroke-width:0.58536;stroke-opacity:0"
     id="path79" />
</svg>
