<svg xmlns="http://www.w3.org/2000/svg" width="200mm" height="200mm" viewBox="0 0 200 200"><path d="m42.429-31.413 80.664 44.687 1.631 92.2-79.032 47.514-80.664-44.687-1.632-92.201Z" style="fill:#99f;fill-opacity:1;stroke:#7288ff;stroke-width:2;stroke-opacity:0" transform="translate(57.523 36.717)"/><path d="m42.429-31.413 80.664 44.687 1.631 92.2-79.032 47.514-80.664-44.687-1.632-92.201Z" style="fill:#00c;fill-opacity:1;stroke:#7288ff;stroke-width:2;stroke-opacity:0" transform="matrix(.33205 0 0 .33142 59.27 32.175)"/><path d="m42.429-31.413 80.664 44.687 1.631 92.2-79.032 47.514-80.664-44.687-1.632-92.201Z" style="fill:#00c;fill-opacity:1;stroke:#7288ff;stroke-width:2;stroke-opacity:0" transform="matrix(.33205 0 0 .33142 112.317 31.22)"/><path d="m42.429-31.413 80.664 44.687 1.631 92.2-79.032 47.514-80.664-44.687-1.632-92.201Z" style="fill:#00c;fill-opacity:1;stroke:#7288ff;stroke-width:2;stroke-opacity:0" transform="matrix(.33205 0 0 .33142 139.595 76.517)"/><path d="m42.429-31.413 80.664 44.687 1.631 92.2-79.032 47.514-80.664-44.687-1.632-92.201Z" style="fill:#00c;fill-opacity:1;stroke:#7288ff;stroke-width:2;stroke-opacity:0" transform="matrix(.33205 0 0 .33142 33.613 78.37)"/><path d="m42.429-31.413 80.664 44.687 1.631 92.2-79.032 47.514-80.664-44.687-1.632-92.201Z" style="fill:#00c;fill-opacity:1;stroke:#7288ff;stroke-width:2;stroke-opacity:0" transform="matrix(.33205 0 0 .33142 60.878 123.62)"/><path d="m42.429-31.413 80.664 44.687 1.631 92.2-79.032 47.514-80.664-44.687-1.632-92.201Z" style="fill:#006;fill-opacity:1;stroke:#7288ff;stroke-width:2;stroke-opacity:0" transform="matrix(.11026 0 0 .11005 88.994 167.333)"/><path d="m42.429-31.413 80.664 44.687 1.631 92.2-79.032 47.514-80.664-44.687-1.632-92.201Z" style="fill:#006;fill-opacity:1;stroke:#7288ff;stroke-width:2;stroke-opacity:0" transform="matrix(.11026 0 0 .11005 106.513 167.023)"/><path d="m42.429-31.413 80.664 44.687 1.631 92.2-79.032 47.514-80.664-44.687-1.632-92.201Z" style="fill:#006;fill-opacity:1;stroke:#7288ff;stroke-width:2;stroke-opacity:0" transform="matrix(.11026 0 0 .11005 88.114 106.012)"/><path d="m42.429-31.413 80.664 44.687 1.631 92.2-79.032 47.514-80.664-44.687-1.632-92.201Z" style="fill:#006;fill-opacity:1;stroke:#7288ff;stroke-width:2;stroke-opacity:0" transform="matrix(.11026 0 0 .11005 105.708 105.768)"/><path d="m42.429-31.413 80.664 44.687 1.631 92.2-79.032 47.514-80.664-44.687-1.632-92.201Z" style="fill:#006;fill-opacity:1;stroke:#7288ff;stroke-width:2;stroke-opacity:0" transform="matrix(.11026 0 0 .11005 87.46 75.707)"/><path d="m42.429-31.413 80.664 44.687 1.631 92.2-79.032 47.514-80.664-44.687-1.632-92.201Z" style="fill:#006;fill-opacity:1;stroke:#7288ff;stroke-width:2;stroke-opacity:0" transform="matrix(.11026 0 0 .11005 105.046 75.415)"/><path d="m42.429-31.413 80.664 44.687 1.631 92.2-79.032 47.514-80.664-44.687-1.632-92.201Z" style="fill:#006;fill-opacity:1;stroke:#7288ff;stroke-width:2;stroke-opacity:0" transform="matrix(.11026 0 0 .11005 86.32 14.856)"/><path d="m42.429-31.413 80.664 44.687 1.631 92.2-79.032 47.514-80.664-44.687-1.632-92.201Z" style="fill:#006;fill-opacity:1;stroke:#7288ff;stroke-width:2;stroke-opacity:0" transform="matrix(.11026 0 0 .11005 103.953 14.614)"/><path d="m42.429-31.413 80.664 44.687 1.631 92.2-79.032 47.514-80.664-44.687-1.632-92.201Z" style="fill:#006;fill-opacity:1;stroke:#7288ff;stroke-width:2;stroke-opacity:0" transform="matrix(.11026 0 0 .11005 78.947 91.025)"/><path d="m42.429-31.413 80.664 44.687 1.631 92.2-79.032 47.514-80.664-44.687-1.632-92.201Z" style="fill:#006;fill-opacity:1;stroke:#7288ff;stroke-width:2;stroke-opacity:0" transform="matrix(.11026 0 0 .11005 33.668 46.273)"/><path d="m42.429-31.413 80.664 44.687 1.631 92.2-79.032 47.514-80.664-44.687-1.632-92.201Z" style="fill:#003;fill-opacity:1;stroke:#7288ff;stroke-width:2;stroke-opacity:0" transform="matrix(.03659 0 0 .03654 40.085 66)"/><path d="m42.429-31.413 80.664 44.687 1.631 92.2-79.032 47.514-80.664-44.687-1.632-92.201Z" style="fill:#003;fill-opacity:1;stroke:#7288ff;stroke-width:2;stroke-opacity:0" transform="matrix(.03659 0 0 .03654 42.851 60.904)"/><path d="m42.429-31.413 80.664 44.687 1.631 92.2-79.032 47.514-80.664-44.687-1.632-92.201Z" style="fill:#003;fill-opacity:1;stroke:#7288ff;stroke-width:2;stroke-opacity:0" transform="matrix(.03659 0 0 .03654 76.192 85.434)"/><path d="m42.429-31.413 80.664 44.687 1.631 92.2-79.032 47.514-80.664-44.687-1.632-92.201Z" style="fill:#003;fill-opacity:1;stroke:#7288ff;stroke-width:2;stroke-opacity:0" transform="matrix(.03659 0 0 .03654 78.958 80.337)"/><path d="m42.429-31.413 80.664 44.687 1.631 92.2-79.032 47.514-80.664-44.687-1.632-92.201Z" style="fill:#003;fill-opacity:1;stroke:#7288ff;stroke-width:2;stroke-opacity:0" transform="matrix(.03659 0 0 .03654 120.53 110.122)"/><path d="m42.429-31.413 80.664 44.687 1.631 92.2-79.032 47.514-80.664-44.687-1.632-92.201Z" style="fill:#003;fill-opacity:1;stroke:#7288ff;stroke-width:2;stroke-opacity:0" transform="matrix(.03659 0 0 .03654 123.296 105.025)"/><path d="m42.429-31.413 80.664 44.687 1.631 92.2-79.032 47.514-80.664-44.687-1.632-92.201Z" style="fill:#003;fill-opacity:1;stroke:#7288ff;stroke-width:2;stroke-opacity:0" transform="matrix(.03659 0 0 .03654 22.454 56.023)"/><path d="m42.429-31.413 80.664 44.687 1.631 92.2-79.032 47.514-80.664-44.687-1.632-92.201Z" style="fill:#003;fill-opacity:1;stroke:#7288ff;stroke-width:2;stroke-opacity:0" transform="matrix(.03659 0 0 .03654 22.843 76.267)"/><path d="m42.429-31.413 80.664 44.687 1.631 92.2-79.032 47.514-80.664-44.687-1.632-92.201Z" style="fill:#003;fill-opacity:1;stroke:#7288ff;stroke-width:2;stroke-opacity:0" transform="matrix(.03659 0 0 .03654 42.615 40.675)"/><path d="m42.429-31.413 80.664 44.687 1.631 92.2-79.032 47.514-80.664-44.687-1.632-92.201Z" style="fill:#003;fill-opacity:1;stroke:#7288ff;stroke-width:2;stroke-opacity:0" transform="matrix(.03659 0 0 .03654 25.22 50.926)"/><path d="m42.429-31.413 80.664 44.687 1.631 92.2-79.032 47.514-80.664-44.687-1.632-92.201Z" style="fill:#003;fill-opacity:1;stroke:#7288ff;stroke-width:2;stroke-opacity:0" transform="matrix(.03659 0 0 .03654 173.92 139.853)"/><path d="m42.429-31.413 80.664 44.687 1.631 92.2-79.032 47.514-80.664-44.687-1.632-92.201Z" style="fill:#003;fill-opacity:1;stroke:#7288ff;stroke-width:2;stroke-opacity:0" transform="matrix(.03659 0 0 .03654 176.686 134.756)"/><path d="m42.429-31.413 80.664 44.687 1.631 92.2-79.032 47.514-80.664-44.687-1.632-92.201Z" style="fill:#003;fill-opacity:1;stroke:#7288ff;stroke-width:2;stroke-opacity:0" transform="matrix(.03659 0 0 .03654 156.289 129.876)"/><path d="m42.429-31.413 80.664 44.687 1.631 92.2-79.032 47.514-80.664-44.687-1.632-92.201Z" style="fill:#003;fill-opacity:1;stroke:#7288ff;stroke-width:2;stroke-opacity:0" transform="matrix(.03659 0 0 .03654 156.677 150.12)"/><path d="m42.429-31.413 80.664 44.687 1.631 92.2-79.032 47.514-80.664-44.687-1.632-92.201Z" style="fill:#003;fill-opacity:1;stroke:#7288ff;stroke-width:2;stroke-opacity:0" transform="matrix(.03659 0 0 .03654 176.45 114.527)"/><path d="m42.429-31.413 80.664 44.687 1.631 92.2-79.032 47.514-80.664-44.687-1.632-92.201Z" style="fill:#003;fill-opacity:1;stroke:#7288ff;stroke-width:2;stroke-opacity:0" transform="matrix(.03659 0 0 .03654 159.055 124.779)"/><path d="m42.429-31.413 80.664 44.687 1.631 92.2-79.032 47.514-80.664-44.687-1.632-92.201Z" style="fill:#003;fill-opacity:1;stroke:#7288ff;stroke-width:2;stroke-opacity:0" transform="matrix(.03659 0 0 .03654 175.167 53.472)"/><path d="m42.429-31.413 80.664 44.687 1.631 92.2-79.032 47.514-80.664-44.687-1.632-92.201Z" style="fill:#003;fill-opacity:1;stroke:#7288ff;stroke-width:2;stroke-opacity:0" transform="matrix(.03659 0 0 .03654 172.338 48.47)"/><path d="m42.429-31.413 80.664 44.687 1.631 92.2-79.032 47.514-80.664-44.687-1.632-92.201Z" style="fill:#003;fill-opacity:1;stroke:#7288ff;stroke-width:2;stroke-opacity:0" transform="matrix(.03659 0 0 .03654 122.763 84.722)"/><path d="m42.429-31.413 80.664 44.687 1.631 92.2-79.032 47.514-80.664-44.687-1.632-92.201Z" style="fill:#003;fill-opacity:1;stroke:#7288ff;stroke-width:2;stroke-opacity:0" transform="matrix(.03659 0 0 .03654 119.934 79.72)"/><path d="m42.429-31.413 80.664 44.687 1.631 92.2-79.032 47.514-80.664-44.687-1.632-92.201Z" style="fill:#003;fill-opacity:1;stroke:#7288ff;stroke-width:2;stroke-opacity:0" transform="matrix(.03659 0 0 .03654 79.87 111.028)"/><path d="m42.429-31.413 80.664 44.687 1.631 92.2-79.032 47.514-80.664-44.687-1.632-92.201Z" style="fill:#003;fill-opacity:1;stroke:#7288ff;stroke-width:2;stroke-opacity:0" transform="matrix(.03659 0 0 .03654 77.04 106.026)"/><path d="m42.429-31.413 80.664 44.687 1.631 92.2-79.032 47.514-80.664-44.687-1.632-92.201Z" style="fill:#003;fill-opacity:1;stroke:#7288ff;stroke-width:2;stroke-opacity:0" transform="matrix(.03659 0 0 .03654 44.16 132.064)"/><path d="m42.429-31.413 80.664 44.687 1.631 92.2-79.032 47.514-80.664-44.687-1.632-92.201Z" style="fill:#003;fill-opacity:1;stroke:#7288ff;stroke-width:2;stroke-opacity:0" transform="matrix(.03659 0 0 .03654 41.331 127.062)"/><path d="m42.429-31.413 80.664 44.687 1.631 92.2-79.032 47.514-80.664-44.687-1.632-92.201Z" style="fill:#003;fill-opacity:1;stroke:#7288ff;stroke-width:2;stroke-opacity:0" transform="matrix(.03659 0 0 .03654 27.04 142.844)"/><path d="m42.429-31.413 80.664 44.687 1.631 92.2-79.032 47.514-80.664-44.687-1.632-92.201Z" style="fill:#003;fill-opacity:1;stroke:#7288ff;stroke-width:2;stroke-opacity:0" transform="matrix(.03659 0 0 .03654 44.52 152.622)"/><path d="m42.429-31.413 80.664 44.687 1.631 92.2-79.032 47.514-80.664-44.687-1.632-92.201Z" style="fill:#003;fill-opacity:1;stroke:#7288ff;stroke-width:2;stroke-opacity:0" transform="matrix(.03659 0 0 .03654 23.632 117.369)"/><path d="m42.429-31.413 80.664 44.687 1.631 92.2-79.032 47.514-80.664-44.687-1.632-92.201Z" style="fill:#003;fill-opacity:1;stroke:#7288ff;stroke-width:2;stroke-opacity:0" transform="matrix(.03659 0 0 .03654 24.21 137.843)"/><path d="m42.429-31.413 80.664 44.687 1.631 92.2-79.032 47.514-80.664-44.687-1.632-92.201Z" style="fill:#003;fill-opacity:1;stroke:#7288ff;stroke-width:2;stroke-opacity:0" transform="matrix(.03659 0 0 .03654 103.42 120.426)"/><path d="m42.429-31.413 80.664 44.687 1.631 92.2-79.032 47.514-80.664-44.687-1.632-92.201Z" style="fill:#003;fill-opacity:1;stroke:#7288ff;stroke-width:2;stroke-opacity:0" transform="matrix(.03659 0 0 .03654 97.584 120.49)"/><path d="m42.429-31.413 80.664 44.687 1.631 92.2-79.032 47.514-80.664-44.687-1.632-92.201Z" style="fill:#003;fill-opacity:1;stroke:#7288ff;stroke-width:2;stroke-opacity:0" transform="matrix(.03659 0 0 .03654 103.629 161.324)"/><path d="m42.429-31.413 80.664 44.687 1.631 92.2-79.032 47.514-80.664-44.687-1.632-92.201Z" style="fill:#003;fill-opacity:1;stroke:#7288ff;stroke-width:2;stroke-opacity:0" transform="matrix(.03659 0 0 .03654 121.33 171.753)"/><path d="m42.429-31.413 80.664 44.687 1.631 92.2-79.032 47.514-80.664-44.687-1.632-92.201Z" style="fill:#003;fill-opacity:1;stroke:#7288ff;stroke-width:2;stroke-opacity:0" transform="matrix(.03659 0 0 .03654 80.357 172.027)"/><path d="m42.429-31.413 80.664 44.687 1.631 92.2-79.032 47.514-80.664-44.687-1.632-92.201Z" style="fill:#003;fill-opacity:1;stroke:#7288ff;stroke-width:2;stroke-opacity:0" transform="matrix(.03659 0 0 .03654 97.793 161.387)"/><path d="m42.429-31.413 80.664 44.687 1.631 92.2-79.032 47.514-80.664-44.687-1.632-92.201Z" style="fill:#003;fill-opacity:1;stroke:#7288ff;stroke-width:2;stroke-opacity:0" transform="matrix(.03659 0 0 .03654 104.64 181.421)"/><path d="m42.429-31.413 80.664 44.687 1.631 92.2-79.032 47.514-80.664-44.687-1.632-92.201Z" style="fill:#003;fill-opacity:1;stroke:#7288ff;stroke-width:2;stroke-opacity:0" transform="matrix(.03659 0 0 .03654 98.803 181.485)"/><path d="m42.429-31.413 80.664 44.687 1.631 92.2-79.032 47.514-80.664-44.687-1.632-92.201Z" style="fill:#003;fill-opacity:1;stroke:#7288ff;stroke-width:2;stroke-opacity:0" transform="matrix(.03659 0 0 .03654 100.91 8.921)"/><path d="m42.429-31.413 80.664 44.687 1.631 92.2-79.032 47.514-80.664-44.687-1.632-92.201Z" style="fill:#003;fill-opacity:1;stroke:#7288ff;stroke-width:2;stroke-opacity:0" transform="matrix(.03659 0 0 .03654 118.612 19.351)"/><path d="m42.429-31.413 80.664 44.687 1.631 92.2-79.032 47.514-80.664-44.687-1.632-92.201Z" style="fill:#003;fill-opacity:1;stroke:#7288ff;stroke-width:2;stroke-opacity:0" transform="matrix(.03659 0 0 .03654 78.099 19.624)"/><path d="m42.429-31.413 80.664 44.687 1.631 92.2-79.032 47.514-80.664-44.687-1.632-92.201Z" style="fill:#003;fill-opacity:1;stroke:#7288ff;stroke-width:2;stroke-opacity:0" transform="matrix(.03659 0 0 .03654 95.075 8.985)"/><path d="m42.429-31.413 80.664 44.687 1.631 92.2-79.032 47.514-80.664-44.687-1.632-92.201Z" style="fill:#003;fill-opacity:1;stroke:#7288ff;stroke-width:2;stroke-opacity:0" transform="matrix(.03659 0 0 .03654 101.922 29.019)"/><path d="m42.429-31.413 80.664 44.687 1.631 92.2-79.032 47.514-80.664-44.687-1.632-92.201Z" style="fill:#003;fill-opacity:1;stroke:#7288ff;stroke-width:2;stroke-opacity:0" transform="matrix(.03659 0 0 .03654 96.085 29.082)"/><path d="m42.429-31.413 80.664 44.687 1.631 92.2-79.032 47.514-80.664-44.687-1.632-92.201Z" style="fill:#003;fill-opacity:1;stroke:#7288ff;stroke-width:2;stroke-opacity:0" transform="matrix(.03659 0 0 .03654 102.986 100.292)"/><path d="m42.429-31.413 80.664 44.687 1.631 92.2-79.032 47.514-80.664-44.687-1.632-92.201Z" style="fill:#003;fill-opacity:1;stroke:#7288ff;stroke-width:2;stroke-opacity:0" transform="matrix(.03659 0 0 .03654 105.793 95.222)"/><path d="m42.429-31.413 80.664 44.687 1.631 92.2-79.032 47.514-80.664-44.687-1.632-92.201Z" style="fill:#003;fill-opacity:1;stroke:#7288ff;stroke-width:2;stroke-opacity:0" transform="matrix(.03659 0 0 .03654 94.044 95.425)"/><path d="m42.429-31.413 80.664 44.687 1.631 92.2-79.032 47.514-80.664-44.687-1.632-92.201Z" style="fill:#003;fill-opacity:1;stroke:#7288ff;stroke-width:2;stroke-opacity:0" transform="matrix(.03659 0 0 .03654 97.15 100.356)"/><path d="m42.429-31.413 80.664 44.687 1.631 92.2-79.032 47.514-80.664-44.687-1.632-92.201Z" style="fill:#003;fill-opacity:1;stroke:#7288ff;stroke-width:2;stroke-opacity:0" transform="matrix(.03659 0 0 .03654 102.68 90.253)"/><path d="m42.429-31.413 80.664 44.687 1.631 92.2-79.032 47.514-80.664-44.687-1.632-92.201Z" style="fill:#003;fill-opacity:1;stroke:#7288ff;stroke-width:2;stroke-opacity:0" transform="matrix(.03659 0 0 .03654 96.844 90.316)"/><path d="m42.429-31.413 80.664 44.687 1.631 92.2-79.032 47.514-80.664-44.687-1.632-92.201Z" style="fill:#003;fill-opacity:1;stroke:#7288ff;stroke-width:2;stroke-opacity:0" transform="matrix(.03659 0 0 .03654 102.115 69.93)"/><path d="m42.429-31.413 80.664 44.687 1.631 92.2-79.032 47.514-80.664-44.687-1.632-92.201Z" style="fill:#003;fill-opacity:1;stroke:#7288ff;stroke-width:2;stroke-opacity:0" transform="matrix(.03659 0 0 .03654 96.278 69.993)"/><path d="m42.429-31.413 80.664 44.687 1.631 92.2-79.032 47.514-80.664-44.687-1.632-92.201Z" style="fill:#003;fill-opacity:1;stroke:#7288ff;stroke-width:2;stroke-opacity:0" transform="matrix(.03659 0 0 .03654 158.485 64.168)"/><path d="m42.429-31.413 80.664 44.687 1.631 92.2-79.032 47.514-80.664-44.687-1.632-92.201Z" style="fill:#003;fill-opacity:1;stroke:#7288ff;stroke-width:2;stroke-opacity:0" transform="matrix(.03659 0 0 .03654 154.606 39.082)"/><path d="m42.429-31.413 80.664 44.687 1.631 92.2-79.032 47.514-80.664-44.687-1.632-92.201Z" style="fill:#003;fill-opacity:1;stroke:#7288ff;stroke-width:2;stroke-opacity:0" transform="matrix(.03659 0 0 .03654 175.706 73.856)"/><path d="m42.429-31.413 80.664 44.687 1.631 92.2-79.032 47.514-80.664-44.687-1.632-92.201Z" style="fill:#003;fill-opacity:1;stroke:#7288ff;stroke-width:2;stroke-opacity:0" transform="matrix(.03659 0 0 .03654 155.37 59.356)"/><path d="m42.429-31.413 80.664 44.687 1.631 92.2-79.032 47.514-80.664-44.687-1.632-92.201Z" style="fill:#006;fill-opacity:1;stroke:#7288ff;stroke-width:2;stroke-opacity:0" transform="matrix(.11026 0 0 .11005 25.23 61.597)"/><path d="m42.429-31.413 80.664 44.687 1.631 92.2-79.032 47.514-80.664-44.687-1.632-92.201Z" style="fill:#006;fill-opacity:1;stroke:#7288ff;stroke-width:2;stroke-opacity:0" transform="matrix(.11026 0 0 .11005 35.655 137.995)"/><path d="m42.429-31.413 80.664 44.687 1.631 92.2-79.032 47.514-80.664-44.687-1.632-92.201Z" style="fill:#006;fill-opacity:1;stroke:#7288ff;stroke-width:2;stroke-opacity:0" transform="matrix(.11026 0 0 .11005 26.598 123.009)"/><path d="m42.429-31.413 80.664 44.687 1.631 92.2-79.032 47.514-80.664-44.687-1.632-92.201Z" style="fill:#006;fill-opacity:1;stroke:#7288ff;stroke-width:2;stroke-opacity:0" transform="matrix(.11026 0 0 .11005 114.135 90.426)"/><path d="m42.429-31.413 80.664 44.687 1.631 92.2-79.032 47.514-80.664-44.687-1.632-92.201Z" style="fill:#006;fill-opacity:1;stroke:#7288ff;stroke-width:2;stroke-opacity:0" transform="matrix(.11026 0 0 .11005 157.475 44.406)"/><path d="m42.429-31.413 80.664 44.687 1.631 92.2-79.032 47.514-80.664-44.687-1.632-92.201Z" style="fill:#006;fill-opacity:1;stroke:#7288ff;stroke-width:2;stroke-opacity:0" transform="matrix(.11026 0 0 .11005 166.565 59.397)"/><path d="m42.429-31.413 80.664 44.687 1.631 92.2-79.032 47.514-80.664-44.687-1.632-92.201Z" style="fill:#006;fill-opacity:1;stroke:#7288ff;stroke-width:2;stroke-opacity:0" transform="matrix(.11026 0 0 .11005 159.003 135.372)"/><path d="m42.429-31.413 80.664 44.687 1.631 92.2-79.032 47.514-80.664-44.687-1.632-92.201Z" style="fill:#006;fill-opacity:1;stroke:#7288ff;stroke-width:2;stroke-opacity:0" transform="matrix(.11026 0 0 .11005 167.478 120.061)"/><path d="m42.429-31.413 80.664 44.687 1.631 92.2-79.032 47.514-80.664-44.687-1.632-92.201Z" style="fill:#00c;fill-opacity:1;stroke:#7288ff;stroke-width:2;stroke-opacity:0" transform="matrix(.33205 0 0 .33142 113.904 122.682)"/></svg>